<?xml version="1.0" standalone="no"?>
<!DOCTYPE svg PUBLIC "-//W3C//DTD SVG 20010904//EN"
 "http://www.w3.org/TR/2001/REC-SVG-20010904/DTD/svg10.dtd">
<svg version="1.0" xmlns="http://www.w3.org/2000/svg"
 width="959.000000pt" height="959.000000pt" viewBox="0 0 959.000000 959.000000"
 preserveAspectRatio="xMidYMid meet">
<metadata>
Created by potrace 1.15, written by Peter Selinger 2001-2017
</metadata>
<g transform="translate(0.000000,959.000000) scale(0.100000,-0.100000)"
fill="#000000" stroke="none">
<path d="M3178 8381 c-14 -12 -33 -21 -42 -21 -19 0 -40 -36 -32 -57 4 -11 2
-13 -9 -9 -20 7 -49 -37 -42 -67 22 -103 40 -155 83 -240 13 -27 24 -55 24
-63 0 -8 10 -14 24 -14 20 0 24 -6 29 -42 16 -119 28 -181 43 -220 24 -63 57
-180 58 -205 0 -13 6 -23 12 -23 13 0 24 -23 24 -51 0 -10 5 -19 10 -19 6 0
10 -18 10 -40 0 -38 12 -52 25 -30 3 6 22 10 41 10 37 0 41 5 20 29 -15 17
-40 280 -29 307 5 12 10 11 29 -7 13 -12 24 -30 24 -40 0 -24 18 -34 22 -12 8
41 -4 81 -28 92 -31 14 -30 32 4 72 27 32 27 35 30 188 2 86 8 166 14 178 6
12 8 31 5 42 -2 11 1 22 7 24 6 3 11 18 10 33 0 16 6 34 14 40 13 9 7 16 -32
39 -25 15 -51 36 -57 47 -15 27 -85 56 -150 62 -30 3 -68 8 -84 11 -22 5 -37
1 -57 -14z"/>
<path d="M3603 8178 c-45 -33 -50 -46 -31 -77 8 -14 7 -47 -5 -142 -22 -166
-31 -432 -18 -506 6 -32 14 -88 17 -125 4 -49 12 -76 30 -100 35 -49 44 -75
36 -100 -11 -32 0 -83 18 -83 10 0 15 10 15 30 0 17 12 50 27 75 14 25 29 68
33 95 8 56 20 76 41 68 15 -6 20 -43 5 -43 -9 0 -46 -113 -55 -170 -11 -71 7
-69 83 9 40 40 79 87 88 104 8 17 21 36 27 42 6 7 20 24 31 38 24 33 45 35 46
5 0 -13 4 -32 8 -43 8 -19 8 -19 19 2 10 17 9 25 -4 38 -14 13 -14 20 -4 45
12 30 17 253 5 289 -3 11 -26 31 -50 46 -25 14 -45 28 -45 31 0 3 5 2 12 -2 7
-4 8 -3 4 4 -9 15 -34 4 -41 -19 -4 -10 -13 -19 -21 -19 -19 0 -18 47 1 84 19
36 19 105 0 130 -8 11 -15 29 -15 41 0 11 -7 31 -16 43 -8 12 -12 22 -8 22 4
0 -5 9 -20 21 -14 11 -26 27 -26 34 0 8 -8 16 -17 19 -18 6 -39 37 -75 109
-23 45 -40 46 -95 5z"/>
<path d="M3017 8090 c-21 -17 -26 -18 -31 -5 -10 26 -26 16 -45 -28 -17 -38
-18 -64 -15 -218 3 -96 10 -193 15 -216 12 -43 7 -63 -16 -63 -16 0 -25 22
-25 64 0 18 -4 36 -10 42 -5 5 -11 50 -14 99 -3 80 -10 108 -39 152 -9 14 -49
2 -73 -22 -9 -8 -23 -15 -33 -15 -24 0 -44 -46 -42 -92 3 -41 -15 -51 -39 -23
-18 21 -40 19 -40 -5 0 -11 7 -20 15 -20 9 0 19 -8 22 -17 4 -10 33 -49 65
-86 88 -103 58 -101 -43 2 -48 50 -90 91 -92 91 -18 0 -117 -54 -116 -63 0 -7
22 -30 48 -52 42 -35 59 -58 78 -102 10 -25 -16 -12 -66 33 -28 25 -57 44 -65
41 -24 -9 -18 -96 10 -132 13 -18 24 -37 24 -43 0 -23 30 -12 36 13 7 30 20
32 34 6 14 -26 13 -31 -6 -31 -12 0 -15 -7 -12 -29 3 -23 1 -27 -14 -23 -10 2
-18 0 -18 -5 0 -22 36 -81 76 -123 99 -104 117 -126 126 -152 5 -15 18 -30 29
-33 25 -8 49 -33 49 -51 0 -8 -11 -19 -25 -24 -29 -11 -35 -43 -7 -38 9 2 21
-5 27 -17 6 -11 18 -21 28 -23 25 -5 23 38 -3 45 -22 6 -26 18 -9 28 5 4 18 0
28 -9 10 -9 25 -16 35 -16 14 0 15 3 6 21 -7 11 -9 32 -5 46 7 28 -16 52 -48
53 -13 0 -17 6 -15 23 3 25 31 26 58 1 20 -17 60 -7 60 15 0 21 -83 113 -130
144 -32 21 -35 27 -36 72 l-1 50 19 -42 c10 -24 25 -43 33 -43 7 0 15 -5 17
-10 2 -6 20 -13 41 -17 31 -5 37 -3 37 12 0 10 7 23 16 30 18 13 19 10 -29 99
-11 20 -13 35 -6 47 5 10 9 27 9 38 0 20 6 22 48 21 4 0 7 -13 8 -28 1 -45 15
-105 35 -149 10 -24 19 -56 19 -73 0 -18 5 -30 13 -30 7 0 19 -10 27 -22 49
-72 76 -76 65 -10 -4 26 -8 56 -9 67 0 11 -5 23 -11 27 -5 4 -9 26 -8 50 1 24
-3 53 -9 65 -6 12 -7 33 -3 50 7 26 8 25 22 -27 23 -92 33 -132 43 -193 14
-79 43 -126 78 -127 14 0 14 0 32 73 10 35 17 47 29 44 9 -2 15 -7 14 -13 0
-5 5 -14 12 -21 18 -17 31 0 39 54 4 30 2 46 -9 56 -8 9 -18 41 -21 74 -4 38
-14 66 -27 81 -23 25 -43 89 -52 169 -4 29 -17 81 -31 115 -13 34 -24 72 -24
84 0 13 -4 26 -10 29 -5 3 -10 24 -10 45 0 21 -6 45 -13 52 -7 7 -24 37 -37
66 -14 28 -29 51 -34 49 -10 -3 -10 -97 0 -172 2 -22 0 -47 -6 -55 -19 -28
-30 10 -30 102 0 48 -5 90 -10 93 -7 4 -7 13 0 26 6 11 15 17 21 14 5 -4 9 8
9 24 0 37 0 37 -33 11z"/>
<path d="M2269 7493 c-27 -33 -41 -70 -34 -92 3 -11 3 -21 -2 -21 -11 0 -34
-66 -40 -117 -4 -31 1 -52 17 -82 13 -22 20 -48 17 -60 -3 -12 -1 -24 4 -27
13 -7 11 -41 -3 -63 -9 -15 -8 -22 5 -35 18 -19 23 -14 32 35 4 24 1 49 -9 74
-12 28 -13 41 -5 51 12 15 49 19 49 6 0 -5 21 -20 48 -35 64 -35 82 -25 81 46
-1 29 -9 70 -19 92 -10 22 -21 60 -25 85 -7 49 -42 110 -63 110 -7 0 -17 11
-22 25 -11 30 -13 30 -31 8z"/>
<path d="M2099 7252 c-28 -34 -37 -60 -49 -134 -12 -72 -11 -76 11 -111 23
-36 94 -81 111 -71 16 10 8 39 -14 49 -20 9 -24 20 -29 85 -3 41 -2 83 2 92
26 49 -2 127 -32 90z"/>
<path d="M2383 6968 c-12 -20 -33 -81 -33 -99 0 -34 49 -56 113 -51 23 3 22
44 -2 66 -16 15 -18 21 -8 37 9 15 9 22 -3 33 -23 21 -57 29 -67 14z"/>
<path d="M1846 6804 c-9 -8 -16 -29 -16 -45 0 -24 -4 -29 -17 -25 -27 8 -54
-48 -61 -121 -4 -59 -3 -63 17 -63 17 0 21 -6 21 -34 0 -29 -4 -34 -30 -39
-21 -5 -30 -12 -30 -27 0 -11 4 -20 9 -20 4 0 19 -11 32 -24 14 -14 39 -26 59
-28 31 -3 36 1 52 32 19 40 25 179 7 197 -7 7 -6 35 4 94 15 86 10 119 -18
119 -7 0 -21 -7 -29 -16z"/>
<path d="M2079 6765 c-5 -100 -18 -175 -35 -200 -8 -11 -14 -28 -14 -39 0 -11
-12 -32 -26 -47 -22 -23 -24 -29 -13 -47 12 -18 10 -24 -9 -45 -19 -20 -23
-34 -20 -72 3 -43 6 -49 31 -58 40 -13 55 4 34 37 -16 24 -16 26 4 45 16 15
20 27 15 46 -5 19 -2 27 11 32 42 16 56 62 53 175 -1 48 3 69 13 75 36 21 51
105 21 117 -9 3 -27 6 -40 6 -19 0 -24 -6 -25 -25z"/>
<path d="M2305 6761 c-17 -7 -20 -16 -17 -54 4 -41 7 -46 30 -49 32 -4 42 -38
17 -58 -8 -7 -15 -8 -15 -3 0 13 -49 35 -61 28 -11 -7 -12 -45 -1 -61 4 -6 24
-17 44 -25 30 -10 41 -10 50 -1 14 14 58 16 58 2 0 -5 -9 -18 -21 -29 -15 -13
-17 -21 -9 -26 7 -4 16 -2 20 5 5 9 19 8 60 -4 54 -16 69 -12 70 20 0 12 -33
43 -72 67 -27 17 -39 57 -18 57 20 0 9 19 -12 22 -20 3 -23 10 -26 49 -2 38
-7 48 -28 58 -29 13 -41 13 -69 2z"/>
<path d="M3323 6513 c-7 -3 -13 -14 -13 -24 0 -38 29 -76 70 -93 22 -9 40 -21
40 -28 0 -7 17 -27 37 -44 37 -31 37 -33 20 -51 -9 -11 -17 -26 -17 -34 -1
-19 -67 -109 -87 -116 -9 -4 -21 1 -27 9 -8 11 -21 14 -39 11 l-28 -5 18 36
c17 36 17 37 -10 89 -14 29 -28 60 -31 70 -4 12 -16 17 -45 17 -34 0 -42 5
-60 34 -29 47 -108 96 -154 96 -20 0 -39 -4 -42 -10 -3 -5 -26 -10 -49 -10
-41 0 -96 -28 -96 -50 0 -5 17 -19 38 -31 42 -25 78 -60 75 -71 -2 -4 15 -11
37 -14 22 -4 40 -10 40 -15 0 -9 -38 -6 -174 13 l-78 11 -34 -37 c-19 -20 -37
-49 -40 -64 -4 -15 -21 -43 -39 -62 -18 -19 -51 -59 -73 -89 -39 -52 -39 -55
-26 -86 l13 -33 -24 12 c-14 6 -25 15 -25 19 0 5 -4 6 -9 2 -6 -3 -19 5 -30
17 -12 12 -21 20 -22 17 -11 -58 6 -78 104 -128 59 -30 67 -32 105 -22 38 11
44 9 81 -16 22 -16 43 -35 46 -45 3 -9 18 -19 32 -23 15 -3 32 -13 37 -21 8
-11 19 -12 43 -5 34 10 62 -7 48 -29 -12 -20 6 -50 31 -50 18 0 33 14 63 63
43 66 115 121 154 115 19 -3 21 -9 19 -49 -2 -26 1 -50 7 -54 6 -3 11 -15 11
-26 0 -15 7 -19 36 -19 27 0 43 -7 59 -26 32 -37 56 -25 94 46 18 33 37 60 43
60 5 0 23 -11 39 -25 35 -29 51 -25 99 24 19 20 46 42 60 49 41 21 61 57 64
117 3 48 0 57 -23 79 -31 29 -65 67 -74 83 -4 6 -3 32 3 57 11 49 5 76 -16 76
-16 0 -27 35 -23 76 4 58 1 64 -35 64 -23 0 -39 7 -48 19 -7 10 -32 22 -55 25
-38 7 -43 11 -55 48 -13 40 -39 60 -65 51z"/>
<path d="M2395 4279 c-33 -5 -86 -12 -117 -15 -39 -4 -58 -11 -58 -20 0 -15
-30 -24 -70 -22 -46 2 -213 -34 -247 -53 -18 -10 -49 -19 -68 -19 -19 0 -65
-11 -102 -25 -37 -14 -95 -35 -129 -45 -34 -11 -79 -32 -100 -46 -21 -15 -52
-33 -68 -39 -40 -17 -173 -126 -181 -147 -4 -10 -12 -18 -19 -18 -7 0 -23 -11
-36 -25 -18 -19 -26 -22 -36 -14 -8 6 -21 8 -30 5 -16 -6 -16 -8 0 -24 23 -26
21 -63 -4 -69 -11 -3 -20 -10 -20 -15 0 -6 -11 -8 -24 -6 -14 3 -30 1 -37 -3
-7 -4 -29 0 -48 10 -20 10 -76 23 -126 30 -49 7 -128 19 -174 27 -46 7 -87 11
-92 9 -4 -3 -11 1 -16 8 -9 15 -95 47 -125 47 -17 0 -17 -1 1 -19 31 -31 63
-48 101 -55 19 -3 48 -17 64 -31 22 -19 40 -25 77 -25 39 0 53 -5 72 -26 20
-21 38 -28 88 -33 64 -7 112 -27 106 -45 -7 -22 -59 -29 -94 -12 -18 9 -45 16
-58 16 -14 0 -25 4 -25 8 0 5 -19 7 -42 5 -51 -4 -141 -3 -182 1 -23 3 -37 -4
-63 -32 -18 -19 -33 -38 -33 -43 0 -4 -9 -11 -20 -14 -25 -8 -25 -25 0 -58 25
-31 25 -37 2 -37 -10 0 -25 -11 -32 -25 -12 -22 -11 -27 5 -45 10 -11 27 -20
37 -20 27 0 58 -18 58 -34 0 -20 -21 -25 -69 -19 -60 8 -162 -15 -169 -39 -3
-13 -14 -18 -37 -18 -38 0 -65 -8 -65 -20 0 -4 16 -17 35 -29 41 -24 45 -50
10 -72 -22 -13 -37 -13 -113 -3 -48 7 -95 13 -104 13 -16 1 -18 -12 -18 -133
0 -143 1 -146 53 -146 12 0 28 -9 35 -20 11 -18 8 -22 -28 -45 -22 -14 -44
-25 -50 -25 -6 0 -10 -55 -10 -150 l0 -150 39 0 c52 0 71 -8 71 -31 0 -22 -21
-35 -73 -44 l-37 -7 0 -1174 0 -1174 1534 0 1534 0 -2 33 c-1 30 1 32 37 35
20 2 37 6 37 10 5 92 13 166 21 199 6 23 8 46 5 52 -14 22 7 59 50 86 24 15
44 31 44 36 0 10 59 39 80 39 21 0 40 20 40 42 0 12 8 18 24 18 13 0 38 14 56
30 18 17 38 30 46 30 8 0 14 6 14 14 0 16 12 21 74 32 29 5 53 20 86 53 28 28
63 52 88 59 23 7 54 23 69 35 15 12 42 29 58 37 68 33 152 111 202 187 18 29
40 53 48 53 8 0 21 10 30 23 41 57 86 134 92 157 3 14 15 38 26 53 19 28 35
78 41 127 5 43 6 44 18 32 16 -16 60 44 52 71 -8 26 15 139 31 152 15 12 46
167 41 205 -1 14 -6 33 -10 43 -5 9 -4 23 1 30 22 27 23 61 2 83 -22 23 -43
162 -40 267 1 50 -2 60 -18 64 -34 9 -51 60 -38 120 10 49 9 54 -12 77 -12 13
-24 38 -26 56 -5 38 -63 170 -82 186 -7 6 -15 28 -18 49 -4 35 -15 51 -68 107
-9 10 -17 25 -17 34 0 9 -9 33 -20 53 -10 20 -24 55 -30 79 -6 23 -17 42 -24
42 -8 0 -16 7 -20 15 -3 8 -12 15 -21 15 -8 0 -15 7 -15 15 0 8 -4 15 -10 15
-5 0 -10 6 -10 13 0 7 -9 18 -20 25 -11 7 -20 17 -20 23 0 15 -46 69 -53 63
-3 -3 -15 8 -28 25 -13 17 -28 31 -34 31 -21 0 -94 70 -89 85 4 8 -12 32 -39
57 -24 24 -49 60 -56 81 -7 20 -17 37 -22 37 -5 0 -9 6 -9 13 0 20 -79 96
-125 119 -55 29 -112 74 -131 107 -17 29 -65 61 -92 61 -16 0 -49 10 -129 37
-23 8 -55 29 -71 47 -24 27 -38 34 -79 38 -35 3 -62 14 -88 34 -36 27 -45 29
-147 33 -67 2 -119 -1 -136 -8 -22 -9 -34 -8 -60 4 -18 9 -30 20 -27 25 3 5 1
11 -5 15 -7 4 -7 12 0 25 20 38 -40 55 -145 39z m885 -2379 c30 -16 60 -74 60
-118 0 -47 37 -152 57 -159 8 -3 20 -18 28 -33 9 -18 29 -33 52 -41 21 -6 52
-27 70 -44 38 -40 82 -55 143 -52 37 2 45 -1 48 -17 2 -11 -4 -25 -14 -33 -20
-15 -124 -18 -124 -4 0 5 -13 4 -29 -2 -23 -8 -36 -8 -55 3 -21 10 -36 11 -73
3 -81 -19 -128 14 -148 105 -3 17 -11 32 -16 32 -6 0 -8 4 -4 10 10 17 -23 80
-48 89 -24 9 -24 11 -22 125 3 140 18 167 75 136z"/>
<path d="M7156 3812 c-26 -2 -35 -6 -27 -12 25 -15 3 -30 -29 -18 -60 20 -110
-45 -55 -70 25 -11 25 -13 10 -41 -24 -47 -19 -58 25 -65 37 -6 40 -8 30 -27
-12 -21 -28 -29 -100 -50 -25 -7 -52 -19 -61 -26 -8 -7 -25 -13 -37 -13 -27 0
-28 -11 -2 -28 13 -8 27 -9 38 -4 24 13 42 4 42 -20 0 -17 5 -19 48 -16 46 3
47 3 47 -27 0 -24 -5 -31 -32 -39 -18 -5 -33 -14 -33 -21 0 -7 15 -16 33 -21
27 -8 32 -15 32 -39 0 -29 -7 -33 -40 -25 -5 1 -32 2 -59 1 l-49 -1 26 -20
c14 -11 40 -20 59 -20 18 0 51 -7 73 -14 22 -8 79 -15 125 -15 155 -2 228 -15
280 -51 41 -28 62 -33 133 -35 49 -2 67 1 67 10 0 18 -28 27 -50 15 -23 -12
-50 -13 -50 -1 0 5 9 11 20 14 24 6 27 39 5 57 -8 7 -15 18 -15 26 0 7 -10 16
-22 19 -54 17 -88 38 -88 56 0 29 52 23 148 -17 66 -28 122 -10 122 39 0 28
-35 95 -67 127 -16 16 -23 32 -20 47 2 13 1 23 -3 23 -3 0 -13 15 -22 33 -12
25 -25 35 -62 45 -53 14 -59 28 -16 37 27 6 43 25 22 25 -10 0 -152 89 -170
107 -8 7 -23 18 -34 24 -27 14 -190 35 -242 31z"/>
<path d="M8970 3655 c0 -9 7 -29 15 -45 8 -16 14 -35 13 -42 -2 -9 10 -13 37
-13 46 0 69 -11 61 -30 -3 -8 2 -19 10 -25 8 -7 14 -17 14 -23 0 -6 8 -19 17
-29 20 -23 7 -40 -31 -40 -38 0 -43 -32 -12 -78 32 -48 32 -58 3 -65 -44 -11
-83 13 -148 93 -13 16 -24 15 -41 -1 -13 -14 -54 -23 -160 -36 -52 -6 -58 -5
-58 11 0 11 -7 18 -20 18 -19 0 -24 -10 -21 -38 3 -22 -28 -50 -75 -68 -37
-14 -44 -21 -44 -44 0 -31 27 -102 43 -111 9 -6 4 -75 -6 -85 -2 -2 -18 0 -35
5 -37 11 -41 2 -14 -37 10 -15 21 -35 25 -44 3 -9 21 -25 39 -34 35 -18 48
-31 48 -52 0 -9 -20 -11 -80 -9 -78 4 -79 4 -88 -23 -6 -15 -8 -39 -5 -53 8
-40 -13 -58 -62 -56 -43 3 -69 -6 -60 -21 6 -10 -35 -54 -65 -70 -11 -6 -28
-28 -39 -50 -18 -37 -18 -39 0 -66 36 -56 89 -82 89 -44 0 14 7 20 23 21 12 0
30 2 39 4 16 3 16 1 3 -26 -9 -17 -24 -29 -35 -29 -13 0 -20 -7 -20 -20 0 -11
-5 -29 -12 -39 -12 -19 -5 -58 23 -129 16 -40 10 -71 -14 -87 -27 -18 -49 -59
-41 -78 2 -7 -4 -22 -16 -32 -26 -23 -26 -53 1 -81 21 -23 21 -23 2 -51 -29
-42 -43 -81 -37 -98 8 -21 18 -19 52 10 35 29 48 31 56 9 24 -63 -15 -134 -74
-134 -26 0 -34 5 -43 30 -6 17 -17 30 -25 30 -7 0 -35 11 -62 25 -27 14 -63
25 -80 25 -20 0 -38 9 -52 25 -44 51 -65 20 -27 -41 20 -33 20 -35 3 -79 -21
-57 -28 -61 -62 -37 -21 15 -33 17 -55 9 -41 -13 -77 5 -77 39 0 25 -23 51
-97 112 -44 36 -56 42 -68 32 -6 -5 -49 -7 -96 -3 -83 6 -86 7 -107 39 -16 25
-30 34 -50 34 -32 1 -68 28 -74 56 -2 12 -13 20 -31 22 -21 3 -29 -2 -39 -23
-8 -18 -25 -29 -57 -39 -25 -7 -50 -10 -56 -6 -16 13 -77 -1 -71 -15 3 -8 -2
-19 -10 -25 -21 -18 -18 -61 5 -67 23 -6 36 -32 18 -34 -46 -6 -99 -9 -142 -9
l-50 -1 29 -24 c17 -13 47 -27 67 -30 40 -7 119 -71 119 -96 0 -8 -7 -23 -16
-34 -12 -16 -18 -17 -32 -7 -41 29 -78 45 -120 51 -32 4 -46 11 -48 23 -1 10
2 20 7 24 20 12 7 32 -23 37 -18 3 -41 8 -50 12 -22 9 -25 -22 -4 -39 10 -7
13 -21 9 -40 -6 -28 -6 -28 -64 -22 -69 8 -79 -1 -53 -52 27 -53 54 -82 78
-82 16 0 14 -4 -12 -17 -42 -20 -92 -7 -163 43 -49 34 -64 39 -93 28 -21 -8
-20 -33 1 -41 17 -7 53 -39 53 -48 0 -3 -9 -5 -21 -5 -12 0 -23 -8 -26 -19 -7
-27 -26 -32 -58 -15 -32 16 -61 18 -70 4 -9 -15 25 -79 46 -85 31 -10 22 -25
-16 -25 -37 0 -44 -10 -20 -30 8 -7 15 -18 15 -26 0 -7 9 -15 19 -19 24 -7 36
-35 16 -35 -8 0 -20 9 -27 20 -7 11 -22 20 -34 20 -14 0 -24 8 -28 23 -3 12
-36 53 -73 92 -66 67 -68 68 -71 42 -2 -15 -10 -27 -18 -27 -8 0 -14 -10 -14
-25 0 -14 -5 -25 -11 -25 -7 0 -9 9 -5 23 9 38 -59 89 -92 68 -19 -11 -1 -52
37 -84 17 -14 31 -30 31 -36 0 -6 18 -22 40 -37 45 -30 71 -65 61 -83 -10 -16
-38 -4 -79 34 -39 35 -57 43 -94 44 -16 1 -37 11 -48 23 -61 67 -64 69 -74 41
-4 -9 -2 -21 4 -27 5 -5 10 -17 10 -26 0 -12 -7 -15 -29 -12 -19 2 -30 -1 -34
-11 -8 -21 14 -79 38 -99 20 -16 20 -17 1 -24 -14 -5 -23 -2 -34 14 -18 27
-72 31 -72 6 0 -23 22 -96 32 -111 14 -17 -8 -25 -31 -11 -28 17 -37 3 -17
-27 14 -21 15 -29 5 -41 -16 -19 -32 -18 -49 6 -15 21 -40 27 -40 10 0 -21 43
-90 56 -90 8 0 14 -9 14 -20 0 -27 -5 -26 -47 15 -20 19 -42 35 -49 35 -8 0
-21 11 -30 25 -43 66 -97 -4 -62 -80 10 -21 9 -28 -2 -35 -8 -5 -21 -5 -31 1
-23 12 -30 -1 -25 -45 8 -56 -31 -46 -62 15 -27 54 -48 45 -44 -21 3 -77 -4
-103 -28 -97 -24 6 -37 -10 -21 -26 6 -6 11 -20 11 -30 0 -16 -6 -18 -29 -15
-27 4 -31 0 -50 -41 -11 -25 -22 -74 -24 -109 -4 -75 -22 -101 -55 -81 -32 20
-62 -12 -62 -67 0 -24 -5 -46 -10 -49 -6 -4 -10 -14 -8 -24 1 -9 -3 -23 -10
-31 -6 -8 -20 -25 -30 -37 -13 -17 -22 -20 -39 -13 -13 5 -23 17 -23 25 0 9
-7 23 -15 31 -8 9 -15 24 -15 35 0 11 -4 18 -9 15 -5 -3 -6 -35 -4 -71 4 -44
2 -69 -7 -80 -18 -22 -30 -18 -30 8 0 21 -27 57 -42 57 -3 0 -9 -12 -13 -28
-3 -15 -14 -35 -22 -44 -14 -16 -14 -20 1 -43 9 -14 20 -25 25 -25 5 0 16 -3
25 -6 11 -4 16 0 16 14 0 29 10 32 53 19 47 -15 42 -31 -10 -35 -23 -2 -47
-10 -53 -18 -11 -12 285 -14 2309 -14 l2321 0 0 1325 c0 1171 -2 1325 -15
1325 -8 0 -15 4 -15 9 0 5 7 14 15 21 13 11 15 77 15 487 0 328 -3 472 -10
468 -7 -4 -9 -24 -5 -48 3 -23 2 -47 -2 -53 -9 -11 -63 -37 -102 -49 -25 -8
-71 11 -71 29 0 6 -12 22 -27 36 -28 27 -142 53 -166 38 -20 -13 -54 -9 -68 8
-16 19 -129 74 -152 74 -10 0 -17 -7 -17 -15z m272 -413 c10 -20 19 -52 20
-71 2 -26 10 -38 33 -51 32 -18 46 -50 21 -50 -8 0 -21 6 -28 13 -17 18 -63
29 -110 28 -44 -1 -60 17 -56 61 2 26 8 34 27 36 13 2 28 -1 34 -7 6 -6 18
-11 26 -11 10 0 6 9 -13 29 -32 34 -29 61 6 61 17 0 28 -10 40 -38z m-1112
-1742 c22 -27 29 -30 62 -25 34 6 38 4 44 -19 3 -14 3 -33 0 -42 -8 -22 11
-91 28 -101 15 -8 19 -33 17 -95 -1 -28 -6 -38 -22 -43 -28 -9 -94 21 -108 49
-6 11 -20 32 -30 46 -25 32 -36 159 -15 167 22 8 17 51 -6 58 -11 3 -20 13
-20 21 0 23 24 16 50 -16z m228 -158 c26 -17 52 -96 42 -132 -4 -16 -19 -29
-44 -39 -33 -13 -39 -12 -53 2 -14 13 -14 20 -3 46 13 32 7 96 -12 118 -5 7
-7 17 -3 23 8 12 38 5 73 -18z"/>
<path d="M5980 3290 c-21 -11 -102 -31 -122 -31 -9 0 -19 -7 -22 -15 -3 -8
-17 -19 -30 -24 -16 -6 -28 -20 -31 -37 -26 -123 -48 -178 -73 -181 -23 -4
-31 -22 -9 -22 17 0 58 -94 51 -117 -15 -44 -55 -123 -62 -123 -15 0 -49 -83
-56 -133 -7 -61 7 -126 39 -178 14 -22 28 -53 32 -70 8 -43 42 -57 87 -35 18
9 39 16 45 16 6 0 48 36 93 80 46 43 95 82 109 85 41 9 57 34 74 115 14 66 35
116 35 83 0 -15 56 -43 85 -43 22 0 55 28 55 47 0 6 12 36 26 67 14 31 22 61
19 67 -4 6 -12 47 -19 91 l-11 81 -50 18 c-28 10 -71 18 -97 18 -41 1 -51 6
-82 39 -40 41 -50 92 -18 92 14 0 15 2 2 10 -24 15 13 24 69 16 36 -5 51 -3
60 8 18 22 -3 56 -34 56 -16 0 -25 6 -25 15 0 17 -36 21 -42 4 -2 -7 -17 -7
-43 -1 -22 5 -47 6 -55 2z"/>
<path d="M6920 2784 c0 -17 120 -115 176 -144 35 -19 66 -42 70 -52 3 -10 16
-21 30 -24 13 -3 24 -10 24 -14 0 -10 110 -65 130 -65 42 -1 23 63 -21 72 -15
3 -29 13 -32 24 -3 12 -14 19 -29 19 -16 0 -46 20 -84 56 -32 30 -72 62 -89
70 -16 9 -50 26 -75 40 -41 22 -100 33 -100 18z"/>
<path d="M5878 1709 c-25 -14 -23 -56 5 -73 37 -23 77 -29 77 -11 0 8 5 15 10
15 6 0 10 -13 10 -29 0 -23 -5 -30 -22 -33 -18 -2 -22 -9 -20 -28 5 -47 52
-56 52 -9 0 17 4 28 10 24 6 -3 10 -20 10 -36 0 -31 19 -46 45 -35 14 5 12 12
-10 51 -32 58 -32 75 0 75 32 0 34 29 3 32 -13 0 -27 2 -33 3 -5 2 -19 3 -30
4 -11 0 -35 15 -53 31 -18 17 -34 30 -35 30 -1 0 -10 -5 -19 -11z"/>
<path d="M3191 228 c-12 -35 -10 -162 2 -174 4 -4 7 -18 7 -31 0 -18 5 -23 25
-23 28 0 33 22 13 65 -10 23 -9 29 20 55 18 16 32 32 32 35 0 13 -71 105 -81
105 -4 0 -12 -15 -18 -32z"/>
</g>
</svg>
