<?xml version="1.0" standalone="no"?>
<!DOCTYPE svg PUBLIC "-//W3C//DTD SVG 20010904//EN"
 "http://www.w3.org/TR/2001/REC-SVG-20010904/DTD/svg10.dtd">
<svg version="1.0" xmlns="http://www.w3.org/2000/svg"
 width="959.000000pt" height="959.000000pt" viewBox="0 0 959.000000 959.000000"
 preserveAspectRatio="xMidYMid meet">
<metadata>
Created by potrace 1.11, written by Peter Selinger 2001-2013
</metadata>
<g transform="translate(0.000000,959.000000) scale(0.100000,-0.100000)"
fill="#000000" stroke="none">
<path d="M3167 8380 c-14 -11 -30 -20 -35 -20 -6 0 -21 -15 -33 -32 -13 -18
-29 -39 -36 -46 -17 -18 -16 -67 2 -118 9 -28 11 -51 5 -70 -6 -22 -9 -24 -9
-8 -2 39 -51 63 -51 24 0 -21 -15 -27 -25 -10 -13 20 -26 9 -48 -42 -16 -38
-21 -69 -20 -108 2 -30 5 -104 6 -165 2 -60 7 -134 11 -162 7 -45 6 -53 -7
-53 -11 0 -18 14 -23 48 -4 26 -11 58 -16 72 -5 13 -9 57 -9 97 0 57 -5 82
-21 109 -18 30 -25 35 -47 29 -14 -4 -33 -12 -41 -20 -8 -7 -25 -16 -36 -19
-40 -12 -58 -43 -55 -94 l3 -47 -22 23 c-27 28 -55 25 -56 -6 -1 -16 6 -26 22
-33 13 -4 24 -14 24 -20 0 -6 10 -22 23 -35 53 -54 77 -84 77 -95 0 -6 -36 24
-79 69 -44 44 -86 82 -93 85 -18 6 -124 -52 -120 -65 2 -6 25 -32 51 -57 41
-39 74 -91 58 -91 -3 0 -27 18 -53 40 -71 59 -77 57 -76 -31 1 -44 24 -94 66
-141 19 -22 20 -35 4 -40 -20 -7 19 -70 79 -131 29 -28 53 -57 53 -64 0 -7 14
-22 30 -35 17 -12 30 -29 30 -37 1 -22 20 -43 53 -60 33 -17 35 -43 5 -56 -13
-6 -24 -20 -26 -32 -3 -19 1 -23 22 -23 14 0 28 -4 31 -10 3 -5 15 -15 26 -20
17 -10 19 -7 19 20 0 22 -5 30 -17 31 -12 0 -14 2 -5 6 8 3 31 -3 53 -12 49
-23 57 -16 26 21 -19 23 -23 34 -15 53 6 18 4 27 -9 37 -10 7 -27 19 -38 28
-20 15 -20 15 4 16 13 0 29 -7 36 -16 17 -23 55 -2 55 30 0 25 -98 136 -120
136 -5 0 -10 9 -10 20 0 11 5 20 10 20 6 0 10 -4 10 -9 0 -12 86 -35 99 -26 6
3 11 12 11 20 0 7 5 15 10 17 10 3 -6 67 -19 78 -21 17 -28 59 -18 93 14 43
47 58 47 22 0 -30 23 -118 42 -165 10 -24 12 -43 7 -59 -11 -29 -6 -37 31 -44
16 -4 30 -13 30 -20 0 -18 48 -62 57 -53 4 4 8 26 8 48 l0 41 13 -34 c23 -57
51 -89 78 -89 13 0 24 6 24 13 0 32 22 87 35 87 8 0 15 -6 15 -14 0 -7 6 -19
14 -25 10 -9 17 -5 32 14 10 14 24 25 30 25 7 0 10 8 7 19 -3 11 6 29 22 47
23 25 29 27 55 17 45 -17 55 10 20 55 -14 17 -20 39 -20 66 1 35 -5 133 -13
201 -3 32 26 23 42 -13 8 -18 20 -31 25 -29 17 6 9 109 -9 120 -19 10 -20 43
-1 50 19 8 28 71 30 221 1 127 13 169 41 146 13 -11 13 -26 -3 -225 -16 -188
-17 -355 -4 -476 15 -133 25 -165 58 -195 20 -20 25 -30 19 -52 -8 -33 -8 -24
-6 -105 1 -59 3 -68 19 -65 9 2 19 14 20 28 2 13 10 33 18 44 9 13 10 25 3 38
-11 20 -1 46 27 69 15 12 16 11 9 -21 -4 -19 -11 -39 -15 -45 -5 -5 0 -20 10
-32 l18 -22 57 57 c32 31 72 78 90 104 55 79 72 98 89 98 17 0 20 -20 16 -106
-1 -37 1 -42 26 -48 21 -6 33 -2 52 18 21 21 23 27 13 40 -8 10 -22 14 -36 10
-33 -8 -43 15 -17 37 23 18 29 44 12 54 -5 3 -10 17 -10 31 0 17 5 24 20 24
14 0 20 7 20 24 0 13 3 31 6 39 3 10 -2 18 -14 21 -17 6 -20 19 -24 106 -5 99
-23 153 -50 147 -6 -1 -18 11 -26 26 -8 17 -19 26 -28 23 -19 -7 -22 1 -29 75
-7 75 -13 99 -26 99 -5 0 -9 13 -9 29 0 33 -39 95 -84 132 -17 15 -44 52 -61
83 -26 49 -34 56 -60 56 -16 0 -41 -9 -55 -20 -17 -13 -28 -16 -37 -9 -12 11
-7 39 10 50 17 12 -2 39 -36 54 -19 8 -40 21 -48 31 -31 37 -91 65 -162 74
-106 14 -132 12 -160 -10z m-63 -345 c3 -8 1 -15 -4 -15 -6 0 -10 7 -10 15 0
8 2 15 4 15 2 0 6 -7 10 -15z m-45 -127 c1 -72 -10 -102 -23 -60 -8 24 -6 152
1 177 6 17 8 16 14 -10 4 -16 7 -65 8 -107z m71 62 c0 -11 -2 -20 -4 -20 -2 0
-6 9 -9 20 -3 11 -1 20 4 20 5 0 9 -9 9 -20z m69 -92 c14 -36 31 -116 31 -142
0 -14 14 -61 30 -106 17 -45 30 -95 30 -111 0 -16 5 -38 12 -49 16 -24 6 -35
-20 -21 -23 12 -52 99 -52 155 0 20 -11 64 -24 98 -38 99 -58 169 -52 184 8
22 36 16 45 -8z m-132 -360 c-3 -8 -6 -5 -6 6 -1 11 2 17 5 13 3 -3 4 -12 1
-19z m-427 -36 c0 -5 13 -22 30 -38 31 -30 42 -72 16 -57 -14 8 -76 88 -76 98
0 3 7 5 15 5 8 0 15 -4 15 -8z m-80 -63 c0 -6 -4 -7 -10 -4 -5 3 -10 11 -10
16 0 6 5 7 10 4 6 -3 10 -11 10 -16z m789 -46 c6 -21 11 -51 11 -68 l0 -30
-25 30 c-28 34 -40 68 -31 90 10 28 35 16 45 -22z m-241 -75 c8 -29 7 -36 -3
-32 -17 7 -27 47 -18 70 4 10 8 14 9 8 2 -5 7 -26 12 -46z m157 2 c3 -5 3 -21
-1 -35 -6 -25 -7 -25 -25 -9 -25 23 -25 54 0 54 11 0 22 -4 26 -10z m486 -49
c-6 -11 -11 -29 -11 -40 0 -12 -4 -21 -10 -21 -14 0 -13 8 7 71 12 39 18 48
21 32 2 -12 -2 -31 -7 -42z"/>
<path d="M2270 7497 c-22 -18 -47 -67 -54 -110 -6 -29 -11 -37 -23 -33 -20 8
-36 -3 -25 -17 5 -7 13 -41 16 -77 4 -36 14 -75 22 -88 10 -16 12 -27 5 -41
-7 -13 -6 -24 6 -41 13 -18 14 -27 5 -41 -12 -19 -6 -75 10 -95 4 -6 5 -20 1
-29 -4 -13 -3 -16 5 -11 7 4 12 14 12 22 0 8 5 14 11 14 5 0 8 4 4 9 -3 5 -1
30 5 55 7 34 6 54 -5 86 -8 23 -12 46 -9 51 7 11 44 12 44 1 0 -14 91 -53 110
-47 23 7 30 28 25 75 -1 19 -3 43 -4 52 -1 9 -7 23 -14 30 -8 7 -20 44 -27 82
-10 56 -20 77 -54 116 -46 54 -45 54 -66 37z"/>
<path d="M2070 7218 c-13 -29 -28 -89 -34 -132 -7 -44 -17 -81 -24 -84 -8 -2
-12 -33 -12 -96 0 -63 -4 -98 -14 -112 -22 -31 -47 -140 -48 -208 0 -33 -4
-65 -8 -71 -4 -5 -10 -19 -13 -30 -2 -11 -5 8 -6 43 0 35 -5 72 -11 82 -7 13
-5 43 5 99 14 72 14 86 1 125 -8 24 -12 53 -9 66 5 17 2 21 -13 19 -10 -2 -25
0 -31 4 -7 5 -17 5 -23 2 -17 -11 -11 -43 10 -50 20 -6 29 -45 10 -45 -5 0
-14 -18 -20 -41 -8 -29 -15 -39 -26 -35 -9 3 -17 -1 -20 -12 -4 -9 -13 -33
-22 -52 -17 -37 -21 -140 -8 -177 6 -18 5 -23 -7 -23 -9 0 -19 -9 -22 -20 -7
-24 3 -63 15 -55 4 3 10 -4 13 -14 3 -13 19 -22 52 -29 56 -12 72 -8 81 21 9
28 36 66 47 67 5 0 17 -10 27 -22 14 -18 16 -28 8 -48 -18 -46 -17 -113 3
-139 11 -13 19 -37 19 -53 0 -31 23 -47 47 -32 22 14 27 103 7 126 -20 22 -12
45 21 60 21 9 28 8 46 -8 20 -18 21 -18 35 1 18 24 18 33 0 51 -20 20 -43 17
-56 -6 -6 -11 -15 -18 -20 -15 -11 7 8 45 28 58 6 4 12 21 12 37 0 34 7 38 26
13 13 -17 13 -17 15 2 2 34 -2 50 -17 61 -15 12 -17 84 -2 84 4 0 8 7 8 15 0
9 7 30 16 47 10 20 14 42 10 63 -6 29 -11 33 -44 37 -54 7 -59 3 -58 -54 1
-27 -4 -61 -11 -75 -7 -14 -13 -39 -13 -57 0 -45 -14 -64 -35 -46 -12 10 -14
23 -9 59 4 25 11 54 16 63 8 16 16 63 21 127 2 19 10 27 35 33 17 5 32 12 32
17 0 4 -11 30 -25 57 -31 62 -32 82 -3 54 12 -11 26 -20 31 -20 4 0 23 -11 41
-25 18 -14 35 -25 38 -25 3 0 5 19 5 41 0 32 -4 43 -18 46 -22 6 -34 42 -25
77 3 14 1 35 -4 48 -8 17 -6 40 8 88 l18 65 -37 3 c-35 2 -37 1 -59 -50z m-60
-712 c-13 -13 -35 7 -25 24 5 8 11 8 21 -1 10 -8 12 -15 4 -23z m-227 9 c4 -8
2 -17 -3 -20 -6 -4 -10 3 -10 14 0 25 6 27 13 6z"/>
<path d="M2940 7215 c12 -15 30 -12 30 6 0 5 -10 9 -21 9 -18 0 -19 -2 -9 -15z"/>
<path d="M2540 7146 c0 -9 7 -12 20 -9 11 3 20 9 20 14 0 5 -9 9 -20 9 -11 0
-20 -6 -20 -14z"/>
<path d="M2476 7114 c-4 -9 0 -24 9 -34 8 -9 15 -21 15 -27 0 -8 27 -71 36
-82 1 -1 8 0 14 4 8 5 8 11 0 19 -5 7 -13 35 -17 62 -9 65 -42 98 -57 58z"/>
<path d="M3867 7094 c-10 -20 -15 -39 -12 -43 9 -8 57 49 52 62 -7 23 -24 16
-40 -19z"/>
<path d="M2590 7057 c0 -18 5 -38 11 -44 6 -6 17 -22 23 -35 12 -23 56 -38 56
-19 0 6 -9 26 -20 46 -11 20 -20 42 -20 50 0 13 -28 35 -44 35 -3 0 -6 -15 -6
-33z"/>
<path d="M3326 7081 c-4 -6 -5 -30 -1 -51 5 -30 11 -40 26 -40 24 0 24 24 0
69 -12 22 -21 30 -25 22z"/>
<path d="M2306 7057 c-15 -11 -17 -17 -7 -35 13 -25 33 -28 50 -8 9 11 10 20
1 35 -13 25 -20 26 -44 8z"/>
<path d="M2417 7036 c-9 -7 -17 -22 -17 -32 0 -11 -9 -25 -21 -32 -12 -7 -18
-16 -16 -19 3 -3 -1 -23 -10 -45 -22 -56 -8 -82 53 -97 43 -11 50 -10 73 7 30
22 40 52 17 52 -16 0 -21 16 -18 53 1 10 -5 25 -14 34 -10 10 -13 25 -9 43 8
35 -13 54 -38 36z"/>
<path d="M1922 7000 c0 -14 2 -19 5 -12 2 6 2 18 0 25 -3 6 -5 1 -5 -13z"/>
<path d="M1914 6955 c-9 -21 -2 -26 13 -10 8 9 9 16 3 20 -6 3 -13 -1 -16 -10z"/>
<path d="M2574 6885 c-4 -8 -3 -26 0 -40 8 -30 52 -35 71 -8 10 14 8 20 -15
40 -32 27 -48 29 -56 8z"/>
<path d="M2764 6784 c21 -19 31 -22 37 -13 10 17 -14 39 -43 39 -23 -1 -23 -1
6 -26z"/>
<path d="M2520 6790 c-21 -7 -21 -8 -5 -9 11 0 27 4 35 9 18 11 5 11 -30 0z"/>
<path d="M2303 6768 c-17 -8 -23 -20 -23 -44 0 -18 -9 -54 -21 -80 -28 -67
-20 -90 41 -117 48 -21 55 -31 51 -71 -3 -41 64 -49 103 -13 25 23 56 32 56
15 0 -4 5 -8 11 -8 5 0 7 5 4 10 -3 6 -2 10 3 10 5 0 12 8 15 19 5 19 -39 74
-79 98 -16 10 -17 13 -4 22 10 7 17 6 22 -2 5 -8 8 -7 8 5 0 9 -6 18 -12 20
-9 3 -8 12 5 31 23 36 22 45 -10 53 -15 4 -42 18 -61 31 -19 12 -41 23 -48 23
-7 0 -18 2 -26 4 -7 3 -23 0 -35 -6z m37 -122 c0 -2 -3 -12 -6 -20 -5 -13 -9
-14 -20 -5 -16 13 -9 29 12 29 8 0 14 -2 14 -4z"/>
<path d="M2552 6771 c-11 -7 -10 -10 3 -15 20 -7 38 1 30 15 -7 11 -16 11 -33
0z"/>
<path d="M3313 6513 c-28 -11 1 -94 39 -114 11 -6 41 -31 65 -55 42 -41 45
-46 38 -81 -4 -20 -15 -49 -26 -64 -10 -15 -19 -31 -19 -36 0 -4 -12 -16 -25
-26 -23 -17 -25 -17 -35 3 -8 15 -17 19 -31 15 -17 -6 -18 -2 -13 37 5 37 2
50 -20 82 -14 21 -26 47 -26 56 0 18 -27 30 -68 30 -15 0 -29 10 -39 28 -9 15
-35 41 -57 57 -33 24 -50 30 -91 29 -84 -2 -139 -13 -165 -32 -37 -28 -35 -45
8 -69 43 -25 71 -53 69 -68 -1 -5 18 -13 43 -16 l45 -6 -52 -1 c-29 -1 -53 2
-53 8 0 5 -13 7 -30 4 -17 -4 -46 0 -68 9 l-39 16 -36 -34 c-40 -38 -57 -65
-57 -92 0 -10 -13 -30 -28 -43 -46 -41 -116 -141 -117 -166 0 -28 -18 -33 -25
-7 -4 13 -17 19 -50 22 -25 1 -46 7 -48 12 -7 17 -22 9 -22 -11 0 -12 7 -20
16 -20 9 0 18 -9 21 -20 5 -19 74 -70 142 -105 25 -13 48 -16 84 -12 41 5 54
2 88 -20 21 -14 39 -31 39 -37 1 -14 78 -62 93 -58 6 2 23 6 39 9 27 5 28 4
28 -36 0 -35 3 -41 25 -47 30 -8 44 2 70 53 27 52 55 83 75 83 9 0 25 9 35 20
33 36 81 21 56 -18 -8 -13 9 -95 22 -109 4 -4 23 -6 41 -5 23 2 40 -5 60 -23
40 -37 46 -34 95 38 35 51 53 57 91 27 32 -25 33 -25 74 11 24 21 42 29 55 24
15 -5 21 1 31 30 6 19 17 38 24 42 49 31 63 140 24 193 -11 16 -25 27 -29 24
-4 -2 -10 5 -14 16 -3 11 -13 27 -22 35 -12 12 -13 21 -4 47 17 47 14 64 -18
101 -23 25 -30 45 -33 83 -3 47 -4 49 -34 52 -18 2 -40 12 -50 23 -9 10 -28
19 -41 19 -35 0 -60 16 -67 44 -11 45 -45 65 -83 49z"/>
<path d="M2230 6466 c0 -14 7 -32 16 -41 15 -14 19 -14 31 -2 11 11 12 19 2
40 -16 35 -49 36 -49 3z"/>
<path d="M3240 6471 c0 -5 7 -12 16 -15 21 -8 21 -8 21 9 0 8 -9 15 -19 15
-10 0 -18 -4 -18 -9z"/>
<path d="M2257 6382 c-8 -9 -16 -24 -17 -32 -7 -47 10 -51 84 -16 l49 23 -39
13 c-21 7 -44 17 -50 21 -7 6 -17 2 -27 -9z"/>
<path d="M1728 6334 c-12 -11 29 -75 64 -100 43 -32 72 -28 76 10 5 41 -5 74
-26 79 -36 11 -108 17 -114 11z"/>
<path d="M2277 6263 c-4 -3 -7 -13 -7 -21 0 -11 10 -13 45 -9 51 5 60 10 50
26 -7 12 -78 15 -88 4z"/>
<path d="M2306 6142 c-10 -16 24 -72 44 -72 19 0 50 35 50 55 0 5 -10 10 -22
10 -13 1 -33 4 -45 8 -12 4 -24 4 -27 -1z"/>
<path d="M387 4535 c17 -23 63 -35 63 -16 0 18 -32 41 -56 41 -25 0 -25 0 -7
-25z"/>
<path d="M96 4523 c-11 -11 -6 -23 9 -23 8 0 15 4 15 9 0 13 -16 22 -24 14z"/>
<path d="M178 4453 c-10 -3 -18 -9 -18 -14 0 -10 7 -11 34 0 23 9 9 19 -16 14z"/>
<path d="M2325 4280 c-11 -5 -40 -9 -63 -9 -35 -1 -45 -5 -49 -21 -4 -16 -13
-20 -37 -19 -42 2 -212 -29 -254 -47 -19 -8 -71 -23 -115 -34 -94 -24 -278
-92 -316 -117 -14 -10 -42 -25 -61 -34 -34 -16 -143 -99 -205 -157 -16 -15
-38 -27 -50 -28 -51 -3 -55 -5 -55 -25 0 -12 8 -28 17 -35 14 -9 15 -17 8 -29
-5 -9 -14 -17 -20 -17 -5 0 -16 -4 -22 -10 -7 -6 -19 -8 -26 -5 -8 3 -20 2
-27 -3 -7 -4 -30 0 -54 11 -25 11 -89 23 -155 29 -62 6 -129 17 -148 25 -20 8
-44 15 -55 15 -21 0 -186 53 -218 70 -16 9 -20 8 -20 -5 0 -8 6 -15 14 -15 8
0 16 -3 18 -8 8 -18 84 -72 102 -72 27 0 83 -37 89 -59 4 -17 12 -18 70 -15
59 4 67 2 81 -18 19 -27 12 -40 -20 -32 -15 4 -26 1 -29 -7 -4 -11 -31 -14
-116 -12 -61 1 -113 3 -115 6 -3 2 -16 2 -29 -1 -24 -4 -24 -5 -8 -17 10 -7
21 -11 25 -9 4 2 9 0 12 -4 5 -9 -47 -62 -61 -62 -5 0 -14 -4 -21 -9 -11 -6
-8 -14 12 -35 22 -21 25 -30 16 -45 -5 -11 -19 -23 -30 -26 -11 -3 -25 -15
-30 -26 -9 -16 -7 -19 10 -19 12 0 32 -12 45 -26 13 -14 29 -24 37 -23 27 3
38 -1 38 -17 0 -12 -5 -15 -23 -9 -12 4 -31 7 -42 7 -36 0 -150 -34 -161 -48
-6 -8 -22 -14 -36 -14 -14 0 -39 -5 -56 -11 -38 -13 -33 -34 13 -49 35 -11 48
-30 39 -54 -8 -20 -37 -25 -81 -16 -21 4 -66 10 -100 12 l-63 4 0 -148 c0
-136 1 -148 18 -148 10 0 26 -6 36 -13 17 -12 15 -15 -18 -38 l-36 -24 0 -157
0 -156 40 -7 c22 -4 40 -12 40 -19 0 -14 -41 -36 -65 -36 -13 0 -15 -155 -15
-1180 l0 -1180 1550 0 c1371 0 1550 2 1550 15 0 8 -4 15 -10 15 -5 0 -10 5
-10 11 0 6 12 9 28 7 20 -2 29 3 37 20 11 26 25 29 25 6 0 -34 33 -74 62 -74
27 0 28 2 28 50 0 43 4 55 28 75 20 18 24 27 17 38 -61 84 -83 109 -102 113
-17 5 -23 13 -23 34 0 39 28 90 56 100 14 6 27 16 30 25 3 8 10 13 14 10 4 -3
10 2 14 10 3 8 16 15 29 15 13 0 45 16 70 35 25 19 50 35 56 35 5 0 13 9 16
20 4 11 19 27 35 35 15 8 30 19 32 25 2 6 10 13 18 14 70 15 86 24 135 71 33
33 67 56 87 60 18 4 49 19 68 34 19 14 52 34 72 43 43 19 155 129 192 187 14
22 35 45 46 51 43 23 175 259 187 336 4 22 10 31 19 27 8 -3 14 -1 14 4 0 6 9
20 20 33 11 13 20 37 20 54 0 17 8 51 16 76 24 67 56 191 56 220 0 14 4 30 9
36 16 19 23 110 10 119 -9 5 -9 10 -1 20 8 10 7 22 -5 46 -12 23 -16 48 -13
85 3 29 1 51 -3 48 -18 -11 -27 30 -32 151 -2 52 -5 61 -25 70 -29 13 -37 37
-33 105 2 48 -1 59 -23 83 -19 20 -26 39 -26 66 0 26 -15 69 -45 129 -25 49
-45 97 -45 106 0 9 -13 30 -28 46 -16 16 -35 49 -42 72 -8 24 -20 48 -28 53
-8 6 -22 34 -31 63 -17 50 -39 77 -189 240 -24 26 -46 53 -51 60 -4 7 -14 14
-22 16 -26 4 -79 36 -80 49 -3 33 -20 77 -29 77 -5 0 -22 12 -39 26 -23 19
-31 34 -31 57 0 24 -11 42 -43 74 -47 47 -86 79 -133 109 -18 10 -63 48 -102
84 -47 45 -84 70 -113 79 -117 35 -166 56 -199 87 -27 26 -44 34 -73 34 -40 0
-107 26 -107 41 0 24 -266 52 -280 29 -5 -8 -18 -10 -38 -5 -27 5 -30 10 -30
42 0 54 -19 63 -126 62 -50 0 -100 -4 -111 -9z m-1380 -682 c33 -15 32 -25 -6
-33 -35 -8 -79 10 -79 32 0 16 50 17 85 1z m-225 -202 c0 -19 -30 -29 -46 -15
-22 18 -16 29 16 29 19 0 30 -5 30 -14z m2536 -1531 c-3 -8 1 -19 9 -25 10 -8
14 -8 17 1 3 9 10 8 26 -2 18 -11 23 -22 21 -54 -1 -22 3 -53 10 -68 6 -15 14
-39 17 -53 10 -38 88 -114 130 -125 20 -6 49 -26 66 -44 16 -19 38 -37 49 -40
33 -11 21 -24 -16 -18 -19 3 -35 2 -35 -3 0 -5 -38 -9 -85 -9 -80 1 -86 2
-115 30 -41 40 -72 111 -65 147 5 21 3 28 -9 28 -45 0 -64 135 -37 258 1 2 6
0 12 -3 6 -4 8 -13 5 -20z m474 -428 c0 -34 -43 -47 -83 -25 -22 11 -22 12 8
24 39 17 75 17 75 1z"/>
<path d="M0 4165 c0 -17 39 -30 52 -17 6 6 -1 13 -21 20 -25 9 -31 8 -31 -3z"/>
<path d="M1060 4123 c2 -25 32 -56 82 -82 32 -17 60 -31 63 -31 14 0 -9 47
-34 68 -41 36 -112 64 -111 45z"/>
<path d="M900 3987 c0 -13 13 -36 29 -51 23 -22 40 -28 92 -32 47 -3 70 0 84
10 18 13 18 16 5 30 -23 22 -139 66 -177 66 -28 0 -33 -4 -33 -23z"/>
<path d="M6980 3884 c-11 -12 -11 -18 2 -31 15 -14 19 -14 47 3 23 14 28 21
19 31 -14 18 -53 16 -68 -3z"/>
<path d="M7080 3836 c0 -8 7 -16 15 -20 27 -10 16 -26 -19 -26 -36 0 -50 -11
-59 -48 -4 -18 0 -25 19 -32 28 -11 28 -8 9 -53 -19 -47 -21 -44 20 -51 25 -5
35 -12 35 -26 0 -14 -16 -23 -75 -41 -41 -12 -80 -28 -86 -35 -6 -8 -22 -14
-35 -14 -32 0 -30 -14 5 -39 27 -20 31 -20 46 -5 15 16 16 16 13 -1 -2 -14 6
-21 32 -27 19 -4 48 -5 63 -2 26 6 28 4 25 -22 -2 -24 -9 -30 -41 -37 -44 -11
-48 -37 -7 -47 14 -3 27 -14 28 -24 3 -14 0 -17 -12 -13 -8 3 -18 2 -21 -3 -4
-6 -28 -10 -55 -10 -27 0 -52 -4 -55 -10 -3 -5 -2 -10 4 -10 5 0 16 -6 24 -14
7 -8 31 -15 53 -17 21 -1 52 -9 68 -17 18 -9 79 -16 170 -19 95 -4 147 -10
161 -19 11 -8 28 -14 37 -14 10 0 26 -4 36 -9 73 -39 113 -54 153 -56 26 -2
68 -11 95 -20 43 -14 49 -14 63 0 21 21 4 48 -36 56 -44 9 -53 17 -53 51 0 22
-4 29 -14 25 -17 -7 -56 19 -56 37 0 8 -16 16 -38 20 -36 5 -89 42 -78 53 14
15 149 -35 168 -62 5 -7 14 -6 28 3 11 6 25 12 31 12 19 0 39 28 39 57 0 33
-40 122 -63 142 -10 7 -17 27 -17 43 0 38 -56 108 -87 108 -32 0 -37 17 -8 24
33 8 31 18 -7 35 -31 14 -148 91 -179 117 -13 12 -109 29 -271 49 -27 4 -48
10 -48 16 0 5 -4 9 -10 9 -5 0 -10 -6 -10 -14z"/>
<path d="M815 3830 c3 -5 15 -10 26 -10 11 0 17 -4 14 -10 -6 -10 42 -26 52
-16 3 3 -2 15 -12 26 -19 21 -92 30 -80 10z"/>
<path d="M6914 3679 c-3 -6 -1 -16 5 -22 13 -13 62 1 69 21 5 15 -64 17 -74 1z"/>
<path d="M8973 3663 c-3 -7 0 -26 5 -41 6 -15 12 -38 14 -52 3 -23 7 -25 44
-22 l40 3 32 -63 c32 -66 30 -78 -15 -78 -32 0 -31 -46 2 -90 24 -32 24 -36 8
-47 -9 -7 -22 -13 -28 -13 -21 0 -93 53 -104 76 -13 30 -46 39 -74 21 -39 -25
-197 -48 -197 -28 0 6 15 26 34 45 l35 34 -23 21 c-12 12 -30 21 -40 21 -14 0
-16 -6 -10 -35 6 -33 4 -37 -25 -48 -26 -9 -31 -17 -31 -44 0 -36 -29 -73 -58
-73 -27 0 -62 -29 -62 -51 0 -11 13 -44 30 -75 21 -40 28 -63 23 -85 -6 -32
-18 -45 -28 -29 -9 14 -45 12 -45 -2 1 -27 60 -106 89 -119 30 -14 33 -17 35
-41 1 -14 -84 -18 -127 -7 -24 7 -29 4 -38 -19 -6 -15 -8 -41 -4 -58 8 -44
-17 -68 -62 -61 -41 7 -84 -10 -76 -29 3 -8 -12 -30 -36 -52 -39 -36 -71 -82
-71 -103 0 -18 73 -89 91 -89 26 0 32 -16 19 -56 -12 -36 -6 -82 22 -156 12
-32 3 -65 -20 -72 -18 -6 -42 -49 -42 -77 0 -9 -7 -22 -15 -29 -23 -19 -19
-69 7 -90 21 -17 22 -19 6 -37 -16 -18 -48 -87 -48 -105 0 -19 31 -19 60 2 25
18 34 19 45 10 25 -21 18 -68 -14 -101 -37 -37 -67 -37 -88 -1 -18 30 -131 87
-174 87 -17 0 -37 11 -53 28 -14 15 -31 25 -36 22 -15 -9 -12 -51 5 -65 8 -7
15 -23 15 -36 0 -23 -28 -104 -36 -104 -3 0 -18 10 -34 21 -26 20 -32 20 -59
9 -37 -15 -56 -3 -66 40 -4 16 -23 44 -44 62 -107 93 -114 98 -126 78 -8 -13
-52 -13 -61 1 -3 6 -17 8 -32 4 -14 -3 -28 -1 -32 5 -5 7 -15 8 -33 1 -19 -7
-27 -7 -27 0 0 27 -42 68 -73 71 -23 2 -37 12 -52 35 -11 18 -28 35 -37 38
-22 8 -58 -11 -58 -30 0 -25 -36 -35 -98 -29 -53 6 -61 4 -80 -17 -12 -12 -22
-32 -22 -43 0 -12 -3 -31 -6 -43 -5 -18 -1 -25 20 -33 51 -19 39 -21 -111 -20
-29 0 -54 -4 -57 -9 -8 -13 59 -61 86 -61 31 0 114 -54 120 -77 3 -11 -3 -30
-13 -42 l-19 -23 -29 25 c-30 25 -115 52 -132 42 -15 -10 -10 12 7 30 20 20 3
45 -32 45 -12 0 -26 5 -29 10 -9 14 -55 13 -55 -2 0 -6 7 -20 17 -30 13 -15
14 -23 4 -44 -10 -22 -16 -25 -39 -19 -45 11 -75 8 -89 -11 -16 -22 -17 -34 0
-34 6 0 23 -20 36 -45 13 -25 28 -45 32 -45 5 0 9 -4 9 -10 0 -17 -61 -11
-104 10 -23 11 -54 31 -70 45 -34 30 -47 31 -76 7 -22 -18 -19 -52 5 -52 7 0
18 -7 25 -15 9 -11 9 -15 1 -15 -6 0 -17 -11 -23 -25 -11 -25 -41 -34 -53 -15
-3 6 -22 10 -42 10 -35 0 -35 -1 -29 -32 3 -18 18 -43 32 -54 l27 -22 -32 -7
c-33 -7 -38 -14 -20 -32 13 -13 5 -43 -11 -43 -5 0 -16 15 -24 33 -18 41 -151
173 -160 158 -4 -6 -2 -20 4 -31 9 -16 8 -22 -4 -26 -21 -8 -42 6 -25 17 7 4
11 10 9 12 -10 10 -106 17 -118 9 -18 -12 10 -65 49 -92 16 -12 29 -28 29 -36
0 -8 8 -18 17 -21 22 -9 83 -69 83 -83 0 -19 -37 -10 -61 16 -30 32 -91 64
-122 64 -16 0 -34 12 -51 35 -16 20 -36 35 -48 35 -18 0 -20 -4 -15 -35 5 -29
3 -35 -12 -35 -28 0 -43 -24 -36 -57 13 -56 17 -63 31 -63 8 0 14 -7 14 -15 0
-23 -20 -18 -42 10 -13 16 -29 25 -49 25 -34 0 -35 -6 -9 -84 26 -76 25 -82
-5 -62 -37 25 -50 10 -26 -30 19 -32 19 -34 3 -43 -13 -7 -23 -3 -41 15 -13
13 -27 24 -32 24 -15 0 -10 -57 6 -70 16 -14 20 -40 6 -40 -5 0 -11 7 -15 15
-3 8 -12 15 -19 15 -8 0 -22 9 -33 21 -49 55 -84 44 -84 -27 0 -23 5 -46 10
-49 6 -3 10 -13 10 -21 0 -11 -9 -15 -32 -12 -32 3 -33 2 -36 -39 -2 -24 -7
-43 -11 -43 -12 0 -38 32 -45 57 -9 27 -45 41 -57 22 -5 -8 -7 -23 -3 -34 22
-72 11 -118 -26 -108 -16 4 -20 14 -20 44 0 53 -22 51 -49 -4 -27 -55 -26 -59
5 -47 36 14 44 13 44 -8 0 -10 5 -23 11 -29 6 -6 8 -16 5 -22 -8 -12 -56 6
-56 21 0 5 -4 7 -9 4 -5 -3 -7 -14 -4 -25 3 -10 -2 -32 -11 -49 -9 -17 -16
-55 -16 -84 0 -29 -3 -63 -6 -75 -7 -26 -32 -37 -50 -22 -10 8 -21 6 -44 -11
-24 -17 -30 -28 -30 -60 0 -35 -3 -39 -31 -45 l-32 -7 29 -24 c16 -13 23 -23
16 -24 -7 0 -18 -13 -23 -30 -15 -43 -39 -39 -70 10 -9 14 -19 38 -23 54 -6
26 -9 27 -22 14 -12 -12 -13 -22 -4 -59 8 -33 8 -52 -1 -74 -8 -21 -13 -25
-17 -15 -8 24 -42 70 -52 70 -5 0 -11 -14 -15 -31 -4 -17 -13 -33 -21 -36 -33
-12 -3 -93 34 -93 7 0 12 -7 12 -15 0 -13 264 -15 2320 -15 l2320 0 0 1330 c0
1178 -2 1329 -15 1324 -8 -4 -15 -1 -15 5 0 7 7 14 15 17 13 5 15 69 15 491 0
319 -3 482 -10 478 -5 -3 -9 -29 -8 -56 3 -57 -1 -61 -82 -91 -47 -17 -76 -11
-87 19 -21 55 -140 96 -208 72 -31 -12 -36 -11 -60 13 -14 14 -38 29 -53 33
-15 4 -35 14 -45 23 -22 20 -57 23 -64 5z m402 -401 c3 -8 -1 -22 -9 -30 -12
-13 -18 -13 -30 -2 -9 7 -16 21 -16 30 0 32 43 34 55 2z m-135 -22 c11 -21 20
-55 20 -74 0 -31 4 -38 36 -51 21 -8 34 -20 31 -27 -4 -13 -37 -12 -47 1 -11
15 -83 32 -109 26 -35 -8 -50 9 -47 55 1 30 5 35 29 38 15 2 27 -1 27 -7 0 -6
9 -11 20 -11 27 0 25 15 -6 37 -17 13 -23 24 -18 36 11 30 42 20 64 -23z
m-350 -4 c0 -8 -4 -17 -9 -21 -12 -7 -24 12 -16 25 9 15 25 12 25 -4z m117 -1
c3 -9 2 -19 -1 -23 -8 -8 -38 10 -44 26 -6 18 38 14 45 -3z m381 -393 c24 -19
24 -24 -15 -91 -6 -10 -33 23 -33 40 0 14 -9 19 -42 21 l-43 3 45 22 c56 26
60 27 88 5z m-708 -46 c0 -17 -14 -29 -23 -20 -8 8 3 34 14 34 5 0 9 -6 9 -14z
m-302 -343 c-4 -22 -38 -30 -49 -12 -11 19 -2 29 27 29 19 0 25 -5 22 -17z
m607 -3 c-3 -5 -13 -10 -21 -10 -8 0 -14 5 -14 10 0 6 9 10 21 10 11 0 17 -4
14 -10z m-547 -113 c3 -12 -4 -17 -23 -17 -23 0 -25 2 -15 21 13 23 33 21 38
-4z m149 -559 c13 -12 23 -31 23 -42 0 -27 -39 -66 -67 -66 -21 0 -23 4 -23
53 0 76 24 96 67 55z m380 -16 c16 -10 53 -125 44 -135 -5 -5 -28 -7 -52 -5
l-44 3 -2 59 c-2 46 2 62 15 72 20 16 23 16 39 6z m-1666 -59 c36 -22 36 -29
-1 -48 -53 -28 -113 -13 -103 26 10 37 60 48 104 22z m1164 -32 c8 -14 -37
-43 -48 -32 -15 15 0 41 22 41 11 0 22 -4 26 -9z m-345 -32 c0 -10 -4 -19 -9
-19 -12 0 -23 29 -15 41 8 14 24 0 24 -22z m-1233 -53 c0 -11 -5 -13 -19 -5
-10 5 -18 12 -18 14 0 3 8 5 18 5 10 0 19 -7 19 -14z m1086 -45 c31 -34 35
-42 22 -47 -17 -7 -108 83 -99 98 8 12 35 -6 77 -51z m-720 25 c18 -4 27 -13
27 -26 0 -25 -10 -25 -60 1 -28 15 -37 24 -29 29 7 5 17 7 23 5 6 -2 23 -6 39
-9z m-138 -6 c3 -5 1 -10 -4 -10 -6 0 -11 5 -11 10 0 6 2 10 4 10 3 0 8 -4 11
-10z m1002 -45 c3 -9 3 -18 1 -21 -9 -9 -38 8 -38 22 0 19 29 18 37 -1z m-943
-20 c3 -8 2 -15 -3 -15 -5 0 -14 7 -21 15 -10 12 -10 15 3 15 8 0 17 -7 21
-15z m1016 -21 c26 5 32 2 42 -19 8 -18 8 -28 0 -38 -13 -16 5 -76 32 -106 15
-16 17 -31 13 -67 -2 -25 -11 -52 -19 -60 -23 -23 -73 4 -119 65 -32 42 -39
60 -39 96 0 49 1 51 30 33 16 -10 23 -10 35 3 18 18 11 44 -13 54 -10 4 -23
-2 -34 -17 -15 -20 -18 -20 -18 -5 0 10 7 20 15 23 8 4 12 10 9 16 -3 5 -3 16
0 25 5 12 9 13 21 3 9 -7 27 -10 45 -6z m-970 -35 c0 -6 -4 -7 -10 -4 -5 3
-10 11 -10 16 0 6 5 7 10 4 6 -3 10 -11 10 -16z m-1058 -91 c-7 -7 -12 -8 -12
-2 0 14 12 26 19 19 2 -3 -1 -11 -7 -17z m453 12 c3 -5 -1 -10 -9 -10 -9 0
-16 5 -16 10 0 6 4 10 9 10 6 0 13 -4 16 -10z m109 4 c9 -3 16 -15 16 -26 0
-18 -4 -20 -32 -14 -58 12 -58 24 -1 45 1 1 8 -2 17 -5z m1616 -15 c27 -15 41
-32 49 -59 13 -44 14 -80 3 -98 -10 -14 -71 -34 -83 -26 -14 8 -10 47 6 71 13
19 13 24 0 50 -8 15 -15 34 -15 41 0 6 -4 12 -10 12 -5 0 -7 7 -4 15 8 19 9
19 54 -6z m-1730 -73 l35 -13 -38 -7 c-47 -9 -78 0 -70 20 6 17 26 17 73 0z
m-175 -36 c3 -5 -1 -10 -9 -10 -8 0 -18 5 -21 10 -3 6 1 10 9 10 8 0 18 -4 21
-10z m400 0 c-3 -5 -15 -10 -25 -10 -10 0 -22 5 -25 10 -4 6 7 10 25 10 18 0
29 -4 25 -10z m-456 -56 c2 -2 -7 -4 -22 -4 -14 0 -29 5 -32 10 -6 10 42 4 54
-6z m231 -24 c0 -5 -4 -10 -9 -10 -6 0 -13 5 -16 10 -3 6 1 10 9 10 9 0 16 -4
16 -10z m-277 -24 c18 -14 24 -71 8 -81 -5 -3 -7 -21 -4 -40 5 -30 3 -35 -14
-35 -11 0 -28 9 -38 20 -17 19 -17 21 -1 38 15 17 15 23 1 62 -8 23 -15 44
-15 46 0 10 47 2 63 -10z m314 -2 c-3 -3 -12 -4 -19 -1 -8 3 -5 6 6 6 11 1 17
-2 13 -5z m-597 -106 c11 -12 18 -23 16 -26 -6 -6 -56 29 -56 39 0 16 19 10
40 -13z m2220 -20 c10 -17 17 -35 14 -40 -10 -15 -61 -8 -78 11 -15 16 -15 22
-4 40 19 30 45 26 68 -11z m-2356 -24 c10 -27 7 -44 -9 -44 -18 0 -30 24 -21
45 7 20 22 19 30 -1z m200 -49 c3 -8 1 -15 -3 -15 -5 0 -11 7 -15 15 -3 8 -1
15 3 15 5 0 11 -7 15 -15z m421 0 c0 -5 -10 -11 -22 -13 -16 -2 -23 2 -23 13
0 11 7 15 23 13 12 -2 22 -7 22 -13z m-748 -71 c-9 -9 -28 6 -21 18 4 6 10 6
17 -1 6 -6 8 -13 4 -17z m897 -1 c7 -18 -16 -43 -40 -43 -18 0 -37 28 -30 45
8 21 62 20 70 -2z m-760 -59 c24 -9 21 -71 -4 -84 -15 -8 -23 -6 -40 12 -41
44 -11 93 44 72z m1586 -158 c0 -19 -22 -36 -47 -36 -31 0 -31 37 0 49 26 10
47 4 47 -13z m-2506 -582 c18 -7 12 -24 -10 -24 -8 0 -14 7 -14 15 0 17 2 18
24 9z"/>
<path d="M9190 3645 c0 -8 7 -15 16 -15 14 0 14 3 4 15 -7 8 -14 15 -16 15 -2
0 -4 -7 -4 -15z"/>
<path d="M9496 3653 c-3 -4 -25 -9 -49 -13 -37 -5 -42 -8 -40 -30 5 -45 13
-70 24 -70 20 0 102 97 94 110 -7 12 -19 13 -29 3z"/>
<path d="M266 3501 c-14 -22 6 -40 37 -35 59 10 64 14 43 30 -22 16 -72 19
-80 5z"/>
<path d="M5982 3324 c-13 -9 -32 -14 -43 -11 -10 3 -21 1 -24 -4 -3 -5 -26 -8
-50 -7 -46 2 -55 -1 -59 -24 -1 -7 -12 -28 -24 -45 -12 -17 -22 -37 -22 -45 0
-7 -7 -22 -15 -32 -8 -11 -15 -36 -15 -56 0 -36 -23 -80 -41 -80 -6 0 -22 -9
-36 -20 -16 -12 -20 -20 -11 -20 24 0 98 -78 98 -104 0 -21 -43 -114 -59 -126
-3 -3 -18 -24 -34 -47 -17 -27 -32 -40 -41 -37 -8 3 -17 0 -21 -6 -9 -15 13
-40 31 -33 17 6 18 -1 4 -27 -14 -26 10 -125 42 -176 14 -22 29 -54 32 -72 12
-53 37 -57 126 -19 19 8 66 46 103 84 40 41 84 75 105 82 50 18 72 39 72 70 0
23 12 80 26 120 3 10 13 7 38 -13 19 -14 44 -26 55 -26 27 0 59 32 67 67 4 16
16 45 26 65 17 32 18 45 9 90 -5 29 -12 74 -16 100 -6 45 -7 46 -55 62 -27 9
-62 16 -79 16 -41 0 -80 16 -88 37 -4 10 -15 24 -24 31 -20 14 -16 35 10 65
12 15 24 17 56 12 33 -4 45 -2 59 14 14 15 15 23 6 40 -6 12 -10 27 -8 34 1 6
-4 21 -11 33 -14 21 -40 21 -93 -1 -10 -4 -27 0 -40 9 -28 20 -28 20 -56 0z
m126 -389 c-3 -3 -9 2 -12 12 -6 14 -5 15 5 6 7 -7 10 -15 7 -18z"/>
<path d="M0 3270 c0 -27 4 -50 9 -50 14 0 71 60 71 75 0 13 -30 25 -62 25 -15
0 -18 -9 -18 -50z"/>
<path d="M6268 3165 c2 -14 8 -25 13 -25 10 0 11 12 3 34 -10 25 -22 19 -16
-9z"/>
<path d="M7040 3140 c0 -5 16 -10 36 -10 21 0 33 4 29 10 -3 6 -19 10 -36 10
-16 0 -29 -4 -29 -10z"/>
<path d="M7120 3121 c0 -5 7 -12 16 -15 24 -9 28 -7 14 9 -14 17 -30 20 -30 6z"/>
<path d="M7223 3084 c7 -7 128 -7 135 1 3 3 -28 5 -68 5 -40 0 -71 -3 -67 -6z"/>
<path d="M7420 2960 c6 -11 20 -24 31 -30 21 -12 59 -5 59 10 0 13 -55 40 -80
40 -18 0 -19 -3 -10 -20z"/>
<path d="M7757 2933 c3 -7 -7 -13 -24 -16 -23 -3 -21 -4 10 -6 21 0 36 -5 33
-9 -3 -5 11 -14 30 -21 18 -7 34 -16 34 -21 0 -5 7 -7 15 -4 8 4 15 1 15 -5 0
-15 22 -14 45 3 18 13 18 14 -4 37 -12 13 -20 31 -18 40 4 14 -5 16 -68 15
-51 -1 -71 -4 -68 -13z"/>
<path d="M7528 2933 c6 -2 18 -2 25 0 6 3 1 5 -13 5 -14 0 -19 -2 -12 -5z"/>
<path d="M6937 2883 c-11 -3 -16 -10 -13 -20 3 -8 6 -17 6 -19 0 -2 10 -4 23
-4 12 0 38 -9 58 -19 20 -11 55 -24 77 -31 23 -6 42 -15 42 -20 0 -6 11 -10
24 -10 14 0 31 -7 40 -15 17 -18 62 -20 72 -4 3 6 0 15 -7 20 -12 7 -11 9 1 9
24 0 44 -16 31 -24 -6 -4 -11 -14 -11 -23 0 -12 7 -14 37 -10 27 5 49 1 80
-15 48 -24 70 -16 58 21 -7 22 -57 41 -108 41 -20 0 -30 6 -34 19 -3 13 -11
17 -24 14 -14 -4 -22 0 -26 15 -3 15 -20 25 -57 36 -68 20 -126 27 -126 15 0
-5 -10 -9 -22 -9 -12 0 -18 3 -15 7 4 3 -1 12 -11 19 -17 13 -60 16 -95 7z"/>
<path d="M6840 2861 c0 -6 5 -13 10 -16 6 -3 10 1 10 9 0 9 -4 16 -10 16 -5 0
-10 -4 -10 -9z"/>
<path d="M6880 2816 c0 -14 4 -26 10 -26 9 0 17 -7 102 -85 23 -23 65 -51 91
-64 26 -13 58 -36 69 -52 12 -16 29 -29 39 -29 9 0 19 -7 22 -15 4 -8 21 -21
39 -28 18 -8 39 -21 47 -30 16 -20 87 -23 94 -4 5 14 -10 46 -32 67 -27 26
-87 60 -106 60 -9 0 -44 27 -77 60 -34 33 -67 60 -74 60 -16 0 -92 39 -100 51
-3 5 -19 9 -36 9 -21 0 -31 6 -35 20 -3 11 -9 20 -13 20 -5 0 -15 3 -24 6 -12
5 -16 0 -16 -20z"/>
<path d="M6680 2535 c0 -19 37 -39 42 -23 3 7 10 8 17 3 11 -6 10 -10 -3 -17
-18 -10 -22 -48 -5 -48 6 0 13 9 16 20 7 27 22 25 33 -5 11 -30 45 -33 53 -5
6 25 -44 70 -78 70 -13 0 -27 5 -30 10 -10 15 -45 12 -45 -5z"/>
<path d="M6736 2381 c-9 -13 30 -33 57 -29 12 2 22 10 22 18 0 18 -69 27 -79
11z"/>
<path d="M6390 2361 c0 -6 12 -21 27 -34 15 -12 37 -31 49 -43 30 -29 54 -37
54 -19 0 8 -6 15 -14 15 -8 0 -25 13 -38 29 -28 34 -78 68 -78 52z"/>
<path d="M6836 2341 c-6 -10 48 -61 66 -61 7 0 22 -7 32 -15 11 -8 34 -15 51
-15 17 0 36 -5 43 -12 9 -9 12 -8 12 5 0 9 5 17 11 17 5 0 7 5 4 10 -4 6 -10
8 -14 5 -5 -2 -36 13 -70 35 -60 39 -122 53 -135 31z"/>
<path d="M6940 2010 c-11 -7 -12 -14 -5 -26 14 -22 90 -45 103 -32 17 17 1 46
-26 51 -15 3 -34 8 -42 11 -8 3 -22 1 -30 -4z"/>
<path d="M6120 1910 c-12 -8 -9 -10 13 -10 15 0 27 5 27 10 0 13 -20 13 -40 0z"/>
<path d="M5878 1726 c-11 -8 -18 -27 -18 -49 0 -32 4 -37 48 -58 26 -13 53
-23 59 -22 7 0 10 -3 7 -8 -3 -5 -14 -9 -25 -9 -25 0 -26 -41 0 -64 17 -16 20
-16 35 0 16 16 18 15 23 -4 2 -11 14 -23 26 -26 44 -11 49 16 12 70 -14 20
-25 41 -25 45 0 18 50 9 62 -11 17 -26 26 -25 30 3 2 16 9 21 26 20 19 -2 22
2 22 32 0 40 -12 45 -34 13 -9 -12 -16 -19 -16 -14 0 5 -7 3 -15 -4 -13 -10
-15 -9 -15 9 0 11 5 21 10 21 6 0 10 11 10 25 0 14 -4 25 -10 25 -5 0 -10 -7
-10 -15 0 -8 -7 -15 -15 -15 -8 0 -15 -6 -15 -14 0 -21 -70 -14 -97 9 -13 11
-23 25 -23 31 0 7 -7 15 -16 18 -19 7 -15 8 -36 -8z"/>
<path d="M6366 1659 c2 -4 -1 -9 -8 -11 -17 -6 0 -28 23 -28 10 0 19 7 19 15
0 8 -5 15 -11 15 -5 0 -8 4 -5 8 3 5 -1 9 -9 9 -8 0 -12 -4 -9 -8z"/>
<path d="M6576 1606 c10 -27 64 -27 64 0 0 9 -11 14 -35 14 -25 0 -33 -4 -29
-14z"/>
<path d="M6180 1565 c0 -8 5 -15 10 -15 6 0 10 7 10 15 0 8 -4 15 -10 15 -5 0
-10 -7 -10 -15z"/>
<path d="M6278 1483 c7 -3 16 -2 19 1 4 3 -2 6 -13 5 -11 0 -14 -3 -6 -6z"/>
<path d="M5995 1391 c-3 -5 -1 -12 5 -16 5 -3 10 1 10 9 0 18 -6 21 -15 7z"/>
<path d="M5650 1120 c0 -6 7 -13 15 -16 8 -4 15 -14 15 -24 0 -10 6 -20 13
-23 10 -4 13 2 9 21 -3 15 -9 33 -15 40 -11 15 -37 16 -37 2z"/>
<path d="M3398 343 c-2 -4 -3 -32 -3 -62 0 -64 18 -83 59 -62 36 20 38 34 12
83 -21 40 -58 62 -68 41z"/>
<path d="M4827 163 c-15 -14 -7 -53 11 -53 19 0 54 20 36 20 -7 0 -14 9 -17
20 -5 20 -18 26 -30 13z"/>
<path d="M3337 24 c-8 -8 1 -24 14 -24 5 0 9 7 9 15 0 15 -12 20 -23 9z"/>
<path d="M4824 15 c-18 -13 -16 -14 20 -15 33 0 37 2 26 15 -15 19 -21 19 -46
0z"/>
</g>
</svg>
